<mxfile host="app.diagrams.net" modified="2023-11-07T15:50:30.107Z" agent="Mozilla/5.0 (Windows NT 10.0; Win64; x64) AppleWebKit/537.36 (KHTML, like Gecko) Chrome/85.0.4183.121 Safari/537.36" etag="mnLq6yZQBAPT71H-fkDa" version="22.0.8" type="github">
  <diagram name="第 1 页" id="RuKQ92S2X4zNMieZN9cE">
    <mxGraphModel dx="-227" dy="314" grid="1" gridSize="10" guides="1" tooltips="1" connect="1" arrows="1" fold="1" page="1" pageScale="1" pageWidth="827" pageHeight="1169" math="0" shadow="0">
      <root>
        <mxCell id="0" />
        <mxCell id="1" parent="0" />
        <mxCell id="d6HO_aTXlClAT9OZpHAv-1" value="域名系统脆弱性八星挖掘原型系统" style="swimlane;whiteSpace=wrap;html=1;fillColor=#f8cecc;strokeColor=#b85450;" vertex="1" parent="1">
          <mxGeometry x="1220" y="120" width="980" height="820" as="geometry" />
        </mxCell>
        <mxCell id="d6HO_aTXlClAT9OZpHAv-2" value="域名系统关键脆弱区域靶点标定模块" style="swimlane;whiteSpace=wrap;html=1;fillColor=#cce5ff;strokeColor=#36393d;" vertex="1" parent="d6HO_aTXlClAT9OZpHAv-1">
          <mxGeometry x="30" y="40" width="520" height="420" as="geometry" />
        </mxCell>
        <mxCell id="d6HO_aTXlClAT9OZpHAv-3" value="1.效果驱动的域名兄靶向漏洞分解模块" style="rounded=1;whiteSpace=wrap;html=1;fillColor=#dae8fc;strokeColor=#6c8ebf;" vertex="1" parent="d6HO_aTXlClAT9OZpHAv-2">
          <mxGeometry x="250" y="50" width="120" height="60" as="geometry" />
        </mxCell>
        <mxCell id="d6HO_aTXlClAT9OZpHAv-4" value="靶向漏洞" style="rounded=0;whiteSpace=wrap;html=1;fillColor=#dae8fc;strokeColor=#6c8ebf;" vertex="1" parent="d6HO_aTXlClAT9OZpHAv-2">
          <mxGeometry x="30" y="40" width="120" height="60" as="geometry" />
        </mxCell>
        <mxCell id="d6HO_aTXlClAT9OZpHAv-5" value="" style="group;fillColor=#dae8fc;strokeColor=#6c8ebf;" vertex="1" connectable="0" parent="d6HO_aTXlClAT9OZpHAv-2">
          <mxGeometry x="20" y="140" width="140" height="260" as="geometry" />
        </mxCell>
        <mxCell id="d6HO_aTXlClAT9OZpHAv-6" value="" style="rounded=1;whiteSpace=wrap;html=1;fillColor=#dae8fc;strokeColor=#6c8ebf;" vertex="1" parent="d6HO_aTXlClAT9OZpHAv-5">
          <mxGeometry width="140" height="259.99999999999994" as="geometry" />
        </mxCell>
        <mxCell id="d6HO_aTXlClAT9OZpHAv-7" value="" style="shape=cylinder3;whiteSpace=wrap;html=1;boundedLbl=1;backgroundOutline=1;size=15;fillColor=#dae8fc;strokeColor=#6c8ebf;" vertex="1" parent="d6HO_aTXlClAT9OZpHAv-5">
          <mxGeometry x="20.38" y="33.90592592592593" width="99.62" height="52.76074074074074" as="geometry" />
        </mxCell>
        <mxCell id="d6HO_aTXlClAT9OZpHAv-8" value="" style="shape=cylinder3;whiteSpace=wrap;html=1;boundedLbl=1;backgroundOutline=1;size=15;fillColor=#dae8fc;strokeColor=#6c8ebf;" vertex="1" parent="d6HO_aTXlClAT9OZpHAv-5">
          <mxGeometry x="21.349999999999998" y="192.59259259259258" width="97.3" height="48.148148148148145" as="geometry" />
        </mxCell>
        <mxCell id="d6HO_aTXlClAT9OZpHAv-9" value="2.靶向特征库模块" style="text;strokeColor=none;fillColor=none;align=left;verticalAlign=middle;spacingLeft=4;spacingRight=4;overflow=hidden;points=[[0,0.5],[1,0.5]];portConstraint=eastwest;rotatable=0;whiteSpace=wrap;html=1;" vertex="1" parent="d6HO_aTXlClAT9OZpHAv-5">
          <mxGeometry x="13.853846153846153" width="113.07692307692307" height="39" as="geometry" />
        </mxCell>
        <mxCell id="d6HO_aTXlClAT9OZpHAv-10" value="代码位置" style="text;html=1;strokeColor=none;fillColor=none;align=center;verticalAlign=middle;whiteSpace=wrap;rounded=0;" vertex="1" parent="d6HO_aTXlClAT9OZpHAv-5">
          <mxGeometry x="30.01" y="61.966666666666654" width="80.77" height="24.699999999999996" as="geometry" />
        </mxCell>
        <mxCell id="d6HO_aTXlClAT9OZpHAv-38" value="" style="shape=cylinder3;whiteSpace=wrap;html=1;boundedLbl=1;backgroundOutline=1;size=15;fillColor=#dae8fc;strokeColor=#6c8ebf;" vertex="1" parent="d6HO_aTXlClAT9OZpHAv-5">
          <mxGeometry x="20.38" y="144.44444444444443" width="99.23" height="48.148148148148145" as="geometry" />
        </mxCell>
        <mxCell id="d6HO_aTXlClAT9OZpHAv-37" value="" style="shape=cylinder3;whiteSpace=wrap;html=1;boundedLbl=1;backgroundOutline=1;size=15;fillColor=#dae8fc;strokeColor=#6c8ebf;" vertex="1" parent="d6HO_aTXlClAT9OZpHAv-5">
          <mxGeometry x="22.7" y="86.66666666666666" width="97.3" height="57.77777777777777" as="geometry" />
        </mxCell>
        <mxCell id="d6HO_aTXlClAT9OZpHAv-39" value="软件配置" style="text;html=1;strokeColor=none;fillColor=none;align=center;verticalAlign=middle;whiteSpace=wrap;rounded=0;" vertex="1" parent="d6HO_aTXlClAT9OZpHAv-5">
          <mxGeometry x="41.35" y="115.55555555555554" width="60" height="28.888888888888886" as="geometry" />
        </mxCell>
        <mxCell id="d6HO_aTXlClAT9OZpHAv-41" value="测试用例" style="text;html=1;strokeColor=none;fillColor=none;align=center;verticalAlign=middle;whiteSpace=wrap;rounded=0;" vertex="1" parent="d6HO_aTXlClAT9OZpHAv-5">
          <mxGeometry x="35.186923076922994" y="163.7037037037037" width="70" height="39" as="geometry" />
        </mxCell>
        <mxCell id="d6HO_aTXlClAT9OZpHAv-42" value="堆栈信息" style="text;html=1;strokeColor=none;fillColor=none;align=center;verticalAlign=middle;whiteSpace=wrap;rounded=0;" vertex="1" parent="d6HO_aTXlClAT9OZpHAv-5">
          <mxGeometry x="41" y="211.85185185185185" width="60" height="38.51851851851852" as="geometry" />
        </mxCell>
        <mxCell id="d6HO_aTXlClAT9OZpHAv-12" value="3.目标软件结构&lt;br&gt;生成模块" style="rounded=1;whiteSpace=wrap;html=1;fillColor=#dae8fc;strokeColor=#6c8ebf;" vertex="1" parent="d6HO_aTXlClAT9OZpHAv-2">
          <mxGeometry x="210" y="140" width="100" height="50" as="geometry" />
        </mxCell>
        <mxCell id="d6HO_aTXlClAT9OZpHAv-13" value="4.靶向脆弱性&lt;br&gt;筛选模块" style="rounded=1;whiteSpace=wrap;html=1;fillColor=#dae8fc;strokeColor=#6c8ebf;" vertex="1" parent="d6HO_aTXlClAT9OZpHAv-2">
          <mxGeometry x="220" y="250" width="100" height="40" as="geometry" />
        </mxCell>
        <mxCell id="d6HO_aTXlClAT9OZpHAv-14" value="7.目标效果语义&lt;br&gt;靶向生成模块" style="rounded=1;whiteSpace=wrap;html=1;fillColor=#dae8fc;strokeColor=#6c8ebf;" vertex="1" parent="d6HO_aTXlClAT9OZpHAv-2">
          <mxGeometry x="390" y="340" width="100" height="60" as="geometry" />
        </mxCell>
        <mxCell id="d6HO_aTXlClAT9OZpHAv-15" value="5.靶向生成模块" style="rounded=1;whiteSpace=wrap;html=1;fillColor=#dae8fc;strokeColor=#6c8ebf;" vertex="1" parent="d6HO_aTXlClAT9OZpHAv-2">
          <mxGeometry x="320" y="200" width="110" height="40" as="geometry" />
        </mxCell>
        <mxCell id="d6HO_aTXlClAT9OZpHAv-16" value="6.靶点标定模块" style="rounded=1;whiteSpace=wrap;html=1;fillColor=#dae8fc;strokeColor=#6c8ebf;" vertex="1" parent="d6HO_aTXlClAT9OZpHAv-2">
          <mxGeometry x="390" y="260" width="95" height="50" as="geometry" />
        </mxCell>
        <mxCell id="d6HO_aTXlClAT9OZpHAv-17" value="靶点位置" style="rounded=0;whiteSpace=wrap;html=1;fillColor=#dae8fc;strokeColor=#6c8ebf;" vertex="1" parent="d6HO_aTXlClAT9OZpHAv-2">
          <mxGeometry x="400" y="130" width="100" height="40" as="geometry" />
        </mxCell>
        <mxCell id="d6HO_aTXlClAT9OZpHAv-43" style="edgeStyle=orthogonalEdgeStyle;rounded=0;orthogonalLoop=1;jettySize=auto;html=1;exitX=0.5;exitY=1;exitDx=0;exitDy=0;entryX=0.491;entryY=-0.113;entryDx=0;entryDy=0;entryPerimeter=0;" edge="1" parent="d6HO_aTXlClAT9OZpHAv-2" source="d6HO_aTXlClAT9OZpHAv-4" target="d6HO_aTXlClAT9OZpHAv-9">
          <mxGeometry relative="1" as="geometry" />
        </mxCell>
        <mxCell id="d6HO_aTXlClAT9OZpHAv-45" value="" style="endArrow=classic;html=1;rounded=0;" edge="1" parent="d6HO_aTXlClAT9OZpHAv-2">
          <mxGeometry width="50" height="50" relative="1" as="geometry">
            <mxPoint x="160" y="220" as="sourcePoint" />
            <mxPoint x="210" y="170" as="targetPoint" />
          </mxGeometry>
        </mxCell>
        <mxCell id="d6HO_aTXlClAT9OZpHAv-46" value="" style="endArrow=classic;html=1;rounded=0;exitX=1;exitY=0.5;exitDx=0;exitDy=0;" edge="1" parent="d6HO_aTXlClAT9OZpHAv-2" source="d6HO_aTXlClAT9OZpHAv-6">
          <mxGeometry width="50" height="50" relative="1" as="geometry">
            <mxPoint x="160" y="340" as="sourcePoint" />
            <mxPoint x="220" y="270" as="targetPoint" />
          </mxGeometry>
        </mxCell>
        <mxCell id="d6HO_aTXlClAT9OZpHAv-48" value="导出" style="text;html=1;strokeColor=none;fillColor=none;align=center;verticalAlign=middle;whiteSpace=wrap;rounded=0;" vertex="1" parent="d6HO_aTXlClAT9OZpHAv-2">
          <mxGeometry x="160" y="241" width="60" height="30" as="geometry" />
        </mxCell>
        <mxCell id="d6HO_aTXlClAT9OZpHAv-49" value="匹配" style="text;html=1;strokeColor=none;fillColor=none;align=center;verticalAlign=middle;whiteSpace=wrap;rounded=0;rotation=-46;" vertex="1" parent="d6HO_aTXlClAT9OZpHAv-2">
          <mxGeometry x="150" y="160" width="60" height="30" as="geometry" />
        </mxCell>
        <mxCell id="d6HO_aTXlClAT9OZpHAv-50" value="" style="shape=cross;whiteSpace=wrap;html=1;size=0.15999755859375;fillColor=#330000;" vertex="1" parent="d6HO_aTXlClAT9OZpHAv-2">
          <mxGeometry x="240" y="210" width="30" height="30" as="geometry" />
        </mxCell>
        <mxCell id="d6HO_aTXlClAT9OZpHAv-51" value="" style="endArrow=classic;html=1;rounded=0;entryX=-0.003;entryY=0.61;entryDx=0;entryDy=0;exitX=1;exitY=0.5;exitDx=0;exitDy=0;exitPerimeter=0;entryPerimeter=0;" edge="1" parent="d6HO_aTXlClAT9OZpHAv-2" source="d6HO_aTXlClAT9OZpHAv-50" target="d6HO_aTXlClAT9OZpHAv-15">
          <mxGeometry width="50" height="50" relative="1" as="geometry">
            <mxPoint x="280" y="220" as="sourcePoint" />
            <mxPoint x="320" y="210" as="targetPoint" />
          </mxGeometry>
        </mxCell>
        <mxCell id="d6HO_aTXlClAT9OZpHAv-53" style="edgeStyle=orthogonalEdgeStyle;rounded=0;orthogonalLoop=1;jettySize=auto;html=1;exitX=0.5;exitY=0;exitDx=0;exitDy=0;entryX=-0.004;entryY=0.59;entryDx=0;entryDy=0;entryPerimeter=0;" edge="1" parent="d6HO_aTXlClAT9OZpHAv-2" source="d6HO_aTXlClAT9OZpHAv-15" target="d6HO_aTXlClAT9OZpHAv-17">
          <mxGeometry relative="1" as="geometry" />
        </mxCell>
        <mxCell id="d6HO_aTXlClAT9OZpHAv-54" style="edgeStyle=orthogonalEdgeStyle;rounded=0;orthogonalLoop=1;jettySize=auto;html=1;entryX=0.635;entryY=0.001;entryDx=0;entryDy=0;entryPerimeter=0;" edge="1" parent="d6HO_aTXlClAT9OZpHAv-2" source="d6HO_aTXlClAT9OZpHAv-17" target="d6HO_aTXlClAT9OZpHAv-16">
          <mxGeometry relative="1" as="geometry" />
        </mxCell>
        <mxCell id="d6HO_aTXlClAT9OZpHAv-55" value="" style="endArrow=classic;html=1;rounded=0;exitX=1.007;exitY=0.863;exitDx=0;exitDy=0;exitPerimeter=0;entryX=-0.018;entryY=0.412;entryDx=0;entryDy=0;entryPerimeter=0;" edge="1" parent="d6HO_aTXlClAT9OZpHAv-2" source="d6HO_aTXlClAT9OZpHAv-6" target="d6HO_aTXlClAT9OZpHAv-14">
          <mxGeometry width="50" height="50" relative="1" as="geometry">
            <mxPoint x="350" y="270" as="sourcePoint" />
            <mxPoint x="400" y="220" as="targetPoint" />
          </mxGeometry>
        </mxCell>
        <mxCell id="d6HO_aTXlClAT9OZpHAv-56" value="生成" style="text;html=1;strokeColor=none;fillColor=none;align=center;verticalAlign=middle;whiteSpace=wrap;rounded=0;" vertex="1" parent="d6HO_aTXlClAT9OZpHAv-2">
          <mxGeometry x="240" y="333" width="60" height="30" as="geometry" />
        </mxCell>
      </root>
    </mxGraphModel>
  </diagram>
</mxfile>
